<?xml version="1.0" encoding="iso-8859-1"?>
<!-- Generator: Adobe Illustrator 18.1.1, SVG Export Plug-In . SVG Version: 6.00 Build 0)  -->
<svg xmlns="http://www.w3.org/2000/svg" xmlns:xlink="http://www.w3.org/1999/xlink" version="1.1" id="Capa_1" x="0px" y="0px" viewBox="0 0 525.153 525.153" style="enable-background:new 0 0 525.153 525.153;" xml:space="preserve" width="512px" height="512px">
<g>
	<path d="M453.557,167.119h-71.618v-95.49H47.745C21.487,71.629,0,93.138,0,119.374V381.95h47.745   c0,39.627,31.991,71.574,71.596,71.574c39.649,0,71.618-31.969,71.618-71.574h143.213c0,39.627,31.991,71.574,71.618,71.574   c39.627,0,71.596-31.969,71.596-71.574h47.767V262.587L453.557,167.119z M119.341,417.77c-19.803,0-35.798-16.017-35.798-35.82   c0-19.825,15.973-35.82,35.798-35.82s35.82,15.973,35.82,35.82C155.161,401.731,139.165,417.77,119.341,417.77z M441.609,202.917   l46.782,59.67H381.917v-59.67H441.609z M405.812,417.77c-19.825,0-35.82-16.017-35.82-35.82c0-19.825,15.973-35.82,35.82-35.82   c19.803,0,35.798,15.973,35.798,35.82C441.609,401.731,425.614,417.77,405.812,417.77z" fill="#aaaaaa"/>
</g>
<g>
</g>
<g>
</g>
<g>
</g>
<g>
</g>
<g>
</g>
<g>
</g>
<g>
</g>
<g>
</g>
<g>
</g>
<g>
</g>
<g>
</g>
<g>
</g>
<g>
</g>
<g>
</g>
<g>
</g>
</svg>
